<svg xmlns="http://www.w3.org/2000/svg" xmlns:xlink="http://www.w3.org/1999/xlink" width="600" zoomAndPan="magnify" viewBox="0 0 450 60" height="80" preserveAspectRatio="xMidYMid meet" version="1.0"><defs><g/><clipPath id="009859db32"><path d="M 34.105469 0.148438 L 59.988281 0.148438 L 59.988281 24.378906 L 34.105469 24.378906 Z M 34.105469 0.148438 " clip-rule="nonzero"/></clipPath><clipPath id="8caaf1ec35"><path d="M 0.480469 16.875 L 50.058594 16.875 L 50.058594 60 L 0.480469 60 Z M 0.480469 16.875 " clip-rule="nonzero"/></clipPath><clipPath id="14c1a27c69"><path d="M 6.25 36.925781 L 32.140625 36.925781 L 32.140625 60 L 6.25 60 Z M 6.25 36.925781 " clip-rule="nonzero"/></clipPath></defs><g clip-path="url(#009859db32)"><path fill="#b4e7f6" d="M 43.011719 9.757812 C 43.207031 9.765625 43.394531 9.777344 43.59375 9.785156 C 43.59375 9.785156 28.5625 5.757812 36.359375 3.273438 C 37.597656 2.988281 38.953125 2.589844 40.371094 2.03125 C 46.542969 -0.386719 54.796875 -1.933594 58.285156 6.875 C 59.949219 11.070312 60.433594 17.359375 59.570312 24.304688 C 57.671875 19.179688 53.128906 13.582031 43.011719 9.757812 " fill-opacity="1" fill-rule="nonzero"/></g><path fill="#81d7f7" d="M 24.976562 17.800781 C 16.488281 16.117188 7.460938 16.507812 0.566406 22.304688 C 0.0195312 16.160156 0.5625 10.664062 2.0625 6.875 C 3.898438 2.238281 7.054688 0.46875 10.535156 0.191406 C 12.890625 0 15.019531 0.472656 17.117188 1.503906 C 19.328125 2.59375 21.476562 3.808594 23.65625 4.960938 C 27.605469 7.046875 33.964844 9.378906 43.011719 9.757812 C 53.128906 13.582031 57.671875 19.179688 59.570312 24.304688 C 58.621094 31.9375 56.039062 40.367188 51.578125 47.695312 C 51.050781 48.554688 50.542969 49.355469 50.046875 50.101562 C 49.464844 46.855469 47.914062 39.738281 44.613281 33.328125 C 42.320312 28.878906 35.140625 19.820312 24.976562 17.800781 " fill-opacity="1" fill-rule="nonzero"/><g clip-path="url(#8caaf1ec35)"><path fill="#60ccf5" d="M 24.976562 17.800781 C 35.140625 19.820312 42.320312 28.878906 44.613281 33.328125 C 47.914062 39.738281 49.464844 46.855469 50.046875 50.101562 C 42.503906 61.472656 38.425781 59.933594 38.425781 59.933594 C 38.425781 59.933594 35.945312 59.125 34.265625 54.351562 C 33.234375 51.414062 32.835938 48.476562 32.121094 46.652344 C 32.121094 46.652344 28.296875 34.851562 15.617188 37.269531 C 10.691406 38.210938 7.914062 40.628906 6.347656 43.234375 C 3.027344 36.386719 1.15625 28.964844 0.566406 22.304688 C 7.460938 16.507812 16.488281 16.117188 24.976562 17.800781 " fill-opacity="1" fill-rule="nonzero"/></g><g clip-path="url(#14c1a27c69)"><path fill="#51ade5" d="M 15.617188 37.269531 C 28.296875 34.851562 32.121094 46.652344 32.121094 46.652344 C 31.675781 45.511719 31.101562 44.804688 30.175781 44.804688 C 27.757812 44.804688 27.757812 49.578125 26.082031 54.351562 C 24.40625 59.125 21.921875 59.933594 21.921875 59.933594 C 21.921875 59.933594 17.292969 61.683594 8.773438 47.695312 C 7.890625 46.246094 7.085938 44.753906 6.347656 43.234375 C 7.914062 40.628906 10.691406 38.210938 15.617188 37.269531 " fill-opacity="1" fill-rule="nonzero"/></g><g fill="#000000" fill-opacity="1"><g transform="translate(66.381402, 38.625)"><g><path d="M 1.640625 -16.421875 L 8.703125 -16.421875 C 11.285156 -16.421875 13.382812 -15.660156 15 -14.140625 C 16.613281 -12.628906 17.421875 -10.648438 17.421875 -8.203125 C 17.421875 -5.785156 16.597656 -3.8125 14.953125 -2.28125 C 13.316406 -0.757812 11.175781 0 8.53125 0 L 1.640625 0 Z M 5.8125 -13.09375 L 5.8125 -3.328125 L 8.796875 -3.328125 C 10.078125 -3.328125 11.128906 -3.773438 11.953125 -4.671875 C 12.773438 -5.578125 13.1875 -6.75 13.1875 -8.1875 C 13.1875 -9.625 12.753906 -10.800781 11.890625 -11.71875 C 11.023438 -12.632812 9.929688 -13.09375 8.609375 -13.09375 Z M 5.8125 -13.09375 "/></g></g></g><g fill="#000000" fill-opacity="1"><g transform="translate(87.323202, 38.625)"><g><path d="M 7.15625 -12.78125 C 9.34375 -12.78125 10.988281 -12.109375 12.09375 -10.765625 C 13.195312 -9.421875 13.675781 -7.578125 13.53125 -5.234375 L 4.640625 -5.234375 C 4.847656 -4.484375 5.207031 -3.90625 5.71875 -3.5 C 6.238281 -3.09375 6.875 -2.890625 7.625 -2.890625 C 8.78125 -2.890625 9.785156 -3.316406 10.640625 -4.171875 L 12.78125 -2.09375 C 11.414062 -0.601562 9.578125 0.140625 7.265625 0.140625 C 5.222656 0.140625 3.59375 -0.441406 2.375 -1.609375 C 1.164062 -2.785156 0.5625 -4.34375 0.5625 -6.28125 C 0.5625 -8.238281 1.164062 -9.8125 2.375 -11 C 3.59375 -12.1875 5.1875 -12.78125 7.15625 -12.78125 Z M 4.578125 -7.40625 L 9.640625 -7.40625 C 9.640625 -8.175781 9.414062 -8.796875 8.96875 -9.265625 C 8.519531 -9.734375 7.929688 -9.96875 7.203125 -9.96875 C 6.515625 -9.96875 5.9375 -9.734375 5.46875 -9.265625 C 5 -8.804688 4.703125 -8.1875 4.578125 -7.40625 Z M 4.578125 -7.40625 "/></g></g></g><g fill="#000000" fill-opacity="1"><g transform="translate(104.395869, 38.625)"><g><path d="M 9.890625 -12.828125 C 11.285156 -12.828125 12.40625 -12.382812 13.25 -11.5 C 14.09375 -10.613281 14.515625 -9.4375 14.515625 -7.96875 L 14.515625 0 L 10.484375 0 L 10.484375 -6.84375 C 10.484375 -7.582031 10.28125 -8.164062 9.875 -8.59375 C 9.476562 -9.019531 8.9375 -9.234375 8.25 -9.234375 C 7.53125 -9.234375 6.941406 -9 6.484375 -8.53125 C 6.023438 -8.0625 5.753906 -7.445312 5.671875 -6.6875 L 5.671875 0 L 1.625 0 L 1.625 -12.640625 L 5.671875 -12.640625 L 5.671875 -10.578125 C 6.566406 -12.046875 7.972656 -12.796875 9.890625 -12.828125 Z M 9.890625 -12.828125 "/></g></g></g><g fill="#000000" fill-opacity="1"><g transform="translate(123.133434, 38.625)"><g><path d="M 8.984375 -3.5 L 9.78125 -0.6875 C 8.789062 -0.101562 7.664062 0.1875 6.40625 0.1875 C 5.15625 0.1875 4.140625 -0.160156 3.359375 -0.859375 C 2.585938 -1.554688 2.203125 -2.546875 2.203125 -3.828125 L 2.203125 -9.40625 L 0.453125 -9.40625 L 0.453125 -12.0625 L 2.203125 -12.0625 L 2.203125 -15.578125 L 6.234375 -15.578125 L 6.234375 -12.078125 L 9.546875 -12.078125 L 9.546875 -9.40625 L 6.234375 -9.40625 L 6.234375 -4.453125 C 6.234375 -3.972656 6.332031 -3.617188 6.53125 -3.390625 C 6.726562 -3.160156 7.019531 -3.054688 7.40625 -3.078125 C 7.78125 -3.078125 8.304688 -3.21875 8.984375 -3.5 Z M 8.984375 -3.5 "/></g></g></g><g fill="#000000" fill-opacity="1"><g transform="translate(136.290071, 38.625)"><g><path d="M 2.125 -17.8125 C 2.519531 -18.207031 3.03125 -18.40625 3.65625 -18.40625 C 4.28125 -18.40625 4.789062 -18.207031 5.1875 -17.8125 C 5.59375 -17.414062 5.796875 -16.90625 5.796875 -16.28125 C 5.796875 -15.65625 5.59375 -15.140625 5.1875 -14.734375 C 4.789062 -14.328125 4.28125 -14.125 3.65625 -14.125 C 3.03125 -14.125 2.519531 -14.328125 2.125 -14.734375 C 1.726562 -15.140625 1.53125 -15.65625 1.53125 -16.28125 C 1.53125 -16.90625 1.726562 -17.414062 2.125 -17.8125 Z M 5.65625 0 L 1.625 0 L 1.625 -12.640625 L 5.65625 -12.640625 Z M 5.65625 0 "/></g></g></g><g fill="#000000" fill-opacity="1"><g transform="translate(146.538993, 38.625)"><g><path d="M 6.140625 -12.828125 C 8.003906 -12.828125 9.738281 -12.347656 11.34375 -11.390625 L 9.96875 -8.765625 C 8.40625 -9.609375 7.078125 -10.03125 5.984375 -10.03125 C 5.148438 -10.03125 4.734375 -9.742188 4.734375 -9.171875 C 4.734375 -8.859375 4.957031 -8.59375 5.40625 -8.375 C 5.863281 -8.164062 6.421875 -7.972656 7.078125 -7.796875 C 7.734375 -7.628906 8.382812 -7.414062 9.03125 -7.15625 C 9.6875 -6.90625 10.238281 -6.5 10.6875 -5.9375 C 11.144531 -5.375 11.375 -4.6875 11.375 -3.875 C 11.375 -2.601562 10.878906 -1.609375 9.890625 -0.890625 C 8.910156 -0.179688 7.628906 0.171875 6.046875 0.171875 C 3.816406 0.171875 1.925781 -0.425781 0.375 -1.625 L 1.671875 -4.203125 C 3.148438 -3.148438 4.640625 -2.625 6.140625 -2.625 C 7.066406 -2.625 7.53125 -2.914062 7.53125 -3.5 C 7.53125 -3.820312 7.304688 -4.09375 6.859375 -4.3125 C 6.410156 -4.53125 5.863281 -4.722656 5.21875 -4.890625 C 4.582031 -5.066406 3.941406 -5.285156 3.296875 -5.546875 C 2.660156 -5.804688 2.117188 -6.207031 1.671875 -6.75 C 1.234375 -7.300781 1.015625 -7.988281 1.015625 -8.8125 C 1.015625 -10.082031 1.488281 -11.066406 2.4375 -11.765625 C 3.394531 -12.472656 4.628906 -12.828125 6.140625 -12.828125 Z M 6.140625 -12.828125 "/></g></g></g><g fill="#000000" fill-opacity="1"><g transform="translate(161.52467, 38.625)"><g><path d="M 8.984375 -3.5 L 9.78125 -0.6875 C 8.789062 -0.101562 7.664062 0.1875 6.40625 0.1875 C 5.15625 0.1875 4.140625 -0.160156 3.359375 -0.859375 C 2.585938 -1.554688 2.203125 -2.546875 2.203125 -3.828125 L 2.203125 -9.40625 L 0.453125 -9.40625 L 0.453125 -12.0625 L 2.203125 -12.0625 L 2.203125 -15.578125 L 6.234375 -15.578125 L 6.234375 -12.078125 L 9.546875 -12.078125 L 9.546875 -9.40625 L 6.234375 -9.40625 L 6.234375 -4.453125 C 6.234375 -3.972656 6.332031 -3.617188 6.53125 -3.390625 C 6.726562 -3.160156 7.019531 -3.054688 7.40625 -3.078125 C 7.78125 -3.078125 8.304688 -3.21875 8.984375 -3.5 Z M 8.984375 -3.5 "/></g></g></g><g fill="#000000" fill-opacity="1"><g transform="translate(174.681301, 38.625)"><g><path d="M 16.796875 0 L 13.109375 0 L 5.5625 -10.109375 L 5.5625 0 L 1.640625 0 L 1.640625 -16.421875 L 5.328125 -16.421875 L 12.90625 -6.28125 L 12.90625 -16.421875 L 16.796875 -16.421875 Z M 16.796875 0 "/></g></g></g><g fill="#000000" fill-opacity="1"><g transform="translate(196.068637, 38.625)"><g><path d="M 7.15625 -12.78125 C 9.34375 -12.78125 10.988281 -12.109375 12.09375 -10.765625 C 13.195312 -9.421875 13.675781 -7.578125 13.53125 -5.234375 L 4.640625 -5.234375 C 4.847656 -4.484375 5.207031 -3.90625 5.71875 -3.5 C 6.238281 -3.09375 6.875 -2.890625 7.625 -2.890625 C 8.78125 -2.890625 9.785156 -3.316406 10.640625 -4.171875 L 12.78125 -2.09375 C 11.414062 -0.601562 9.578125 0.140625 7.265625 0.140625 C 5.222656 0.140625 3.59375 -0.441406 2.375 -1.609375 C 1.164062 -2.785156 0.5625 -4.34375 0.5625 -6.28125 C 0.5625 -8.238281 1.164062 -9.8125 2.375 -11 C 3.59375 -12.1875 5.1875 -12.78125 7.15625 -12.78125 Z M 4.578125 -7.40625 L 9.640625 -7.40625 C 9.640625 -8.175781 9.414062 -8.796875 8.96875 -9.265625 C 8.519531 -9.734375 7.929688 -9.96875 7.203125 -9.96875 C 6.515625 -9.96875 5.9375 -9.734375 5.46875 -9.265625 C 5 -8.804688 4.703125 -8.1875 4.578125 -7.40625 Z M 4.578125 -7.40625 "/></g></g></g><g fill="#000000" fill-opacity="1"><g transform="translate(213.141298, 38.625)"><g><path d="M 7.296875 -12.828125 C 9.023438 -12.828125 10.367188 -12.421875 11.328125 -11.609375 C 12.296875 -10.804688 12.789062 -9.6875 12.8125 -8.25 L 12.8125 0 L 8.84375 0 L 8.84375 -1.453125 C 8.007812 -0.359375 6.71875 0.1875 4.96875 0.1875 C 3.644531 0.1875 2.59375 -0.175781 1.8125 -0.90625 C 1.03125 -1.644531 0.640625 -2.601562 0.640625 -3.78125 C 0.640625 -4.976562 1.054688 -5.910156 1.890625 -6.578125 C 2.722656 -7.242188 3.921875 -7.582031 5.484375 -7.59375 L 8.8125 -7.59375 L 8.8125 -7.78125 C 8.8125 -8.40625 8.601562 -8.894531 8.1875 -9.25 C 7.78125 -9.601562 7.171875 -9.78125 6.359375 -9.78125 C 5.210938 -9.78125 3.953125 -9.425781 2.578125 -8.71875 L 1.4375 -11.390625 C 3.476562 -12.347656 5.429688 -12.828125 7.296875 -12.828125 Z M 6.21875 -2.5625 C 6.851562 -2.5625 7.410156 -2.71875 7.890625 -3.03125 C 8.378906 -3.351562 8.6875 -3.773438 8.8125 -4.296875 L 8.8125 -5.421875 L 6.265625 -5.421875 C 5.046875 -5.421875 4.4375 -4.96875 4.4375 -4.0625 C 4.4375 -3.59375 4.59375 -3.222656 4.90625 -2.953125 C 5.21875 -2.691406 5.65625 -2.5625 6.21875 -2.5625 Z M 6.21875 -2.5625 "/></g></g></g><g fill="#000000" fill-opacity="1"><g transform="translate(230.167062, 38.625)"><g><path d="M 5.671875 -12.640625 L 5.671875 -10.5 C 6.566406 -12.019531 7.9375 -12.796875 9.78125 -12.828125 L 9.78125 -9.171875 C 8.625 -9.273438 7.675781 -9.082031 6.9375 -8.59375 C 6.207031 -8.101562 5.785156 -7.40625 5.671875 -6.5 L 5.671875 0 L 1.625 0 L 1.625 -12.640625 Z M 5.671875 -12.640625 "/></g></g></g><g fill="#000000" fill-opacity="1"><g transform="translate(243.136101, 38.625)"><g><path d="M 19.671875 0 L 16 0 L 15.96875 -10.671875 L 12.03125 -1.640625 L 9.3125 -1.640625 L 5.375 -10.671875 L 5.375 0 L 1.640625 0 L 1.640625 -16.4375 L 6.21875 -16.4375 L 10.671875 -6.65625 L 15.125 -16.4375 L 19.671875 -16.4375 Z M 19.671875 0 "/></g></g></g><g fill="#000000" fill-opacity="1"><g transform="translate(267.431152, 38.625)"><g><path d="M 7.15625 -12.78125 C 9.34375 -12.78125 10.988281 -12.109375 12.09375 -10.765625 C 13.195312 -9.421875 13.675781 -7.578125 13.53125 -5.234375 L 4.640625 -5.234375 C 4.847656 -4.484375 5.207031 -3.90625 5.71875 -3.5 C 6.238281 -3.09375 6.875 -2.890625 7.625 -2.890625 C 8.78125 -2.890625 9.785156 -3.316406 10.640625 -4.171875 L 12.78125 -2.09375 C 11.414062 -0.601562 9.578125 0.140625 7.265625 0.140625 C 5.222656 0.140625 3.59375 -0.441406 2.375 -1.609375 C 1.164062 -2.785156 0.5625 -4.34375 0.5625 -6.28125 C 0.5625 -8.238281 1.164062 -9.8125 2.375 -11 C 3.59375 -12.1875 5.1875 -12.78125 7.15625 -12.78125 Z M 4.578125 -7.40625 L 9.640625 -7.40625 C 9.640625 -8.175781 9.414062 -8.796875 8.96875 -9.265625 C 8.519531 -9.734375 7.929688 -9.96875 7.203125 -9.96875 C 6.515625 -9.96875 5.9375 -9.734375 5.46875 -9.265625 C 5 -8.804688 4.703125 -8.1875 4.578125 -7.40625 Z M 4.578125 -7.40625 "/></g></g></g><g fill="#000000" fill-opacity="1"><g transform="translate(284.503813, 38.625)"><g><path d="M 1.421875 -3.1875 C 1.785156 -3.550781 2.253906 -3.734375 2.828125 -3.734375 C 3.410156 -3.734375 3.882812 -3.550781 4.25 -3.1875 C 4.625 -2.832031 4.8125 -2.363281 4.8125 -1.78125 C 4.8125 -1.207031 4.625 -0.734375 4.25 -0.359375 C 3.882812 0.00390625 3.410156 0.1875 2.828125 0.1875 C 2.253906 0.1875 1.785156 0.00390625 1.421875 -0.359375 C 1.066406 -0.734375 0.890625 -1.207031 0.890625 -1.78125 C 0.890625 -2.363281 1.066406 -2.832031 1.421875 -3.1875 Z M 1.421875 -3.1875 "/></g></g></g><g fill="#000000" fill-opacity="1"><g transform="translate(293.158179, 38.625)"><g><path d="M 7.296875 -12.828125 C 9.023438 -12.828125 10.367188 -12.421875 11.328125 -11.609375 C 12.296875 -10.804688 12.789062 -9.6875 12.8125 -8.25 L 12.8125 0 L 8.84375 0 L 8.84375 -1.453125 C 8.007812 -0.359375 6.71875 0.1875 4.96875 0.1875 C 3.644531 0.1875 2.59375 -0.175781 1.8125 -0.90625 C 1.03125 -1.644531 0.640625 -2.601562 0.640625 -3.78125 C 0.640625 -4.976562 1.054688 -5.910156 1.890625 -6.578125 C 2.722656 -7.242188 3.921875 -7.582031 5.484375 -7.59375 L 8.8125 -7.59375 L 8.8125 -7.78125 C 8.8125 -8.40625 8.601562 -8.894531 8.1875 -9.25 C 7.78125 -9.601562 7.171875 -9.78125 6.359375 -9.78125 C 5.210938 -9.78125 3.953125 -9.425781 2.578125 -8.71875 L 1.4375 -11.390625 C 3.476562 -12.347656 5.429688 -12.828125 7.296875 -12.828125 Z M 6.21875 -2.5625 C 6.851562 -2.5625 7.410156 -2.71875 7.890625 -3.03125 C 8.378906 -3.351562 8.6875 -3.773438 8.8125 -4.296875 L 8.8125 -5.421875 L 6.265625 -5.421875 C 5.046875 -5.421875 4.4375 -4.96875 4.4375 -4.0625 C 4.4375 -3.59375 4.59375 -3.222656 4.90625 -2.953125 C 5.21875 -2.691406 5.65625 -2.5625 6.21875 -2.5625 Z M 6.21875 -2.5625 "/></g></g></g><g fill="#000000" fill-opacity="1"><g transform="translate(310.183942, 38.625)"><g><path d="M 2.125 -17.8125 C 2.519531 -18.207031 3.03125 -18.40625 3.65625 -18.40625 C 4.28125 -18.40625 4.789062 -18.207031 5.1875 -17.8125 C 5.59375 -17.414062 5.796875 -16.90625 5.796875 -16.28125 C 5.796875 -15.65625 5.59375 -15.140625 5.1875 -14.734375 C 4.789062 -14.328125 4.28125 -14.125 3.65625 -14.125 C 3.03125 -14.125 2.519531 -14.328125 2.125 -14.734375 C 1.726562 -15.140625 1.53125 -15.65625 1.53125 -16.28125 C 1.53125 -16.90625 1.726562 -17.414062 2.125 -17.8125 Z M 5.65625 0 L 1.625 0 L 1.625 -12.640625 L 5.65625 -12.640625 Z M 5.65625 0 "/></g></g></g></svg>